<svg width="300" height="283" viewBox="0 0 300 283" fill="none" xmlns="http://www.w3.org/2000/svg">
<path d="M243.051 91.6033C241.575 88.9343 239.995 86.317 238.389 83.7516C255.896 71.0282 276.822 62.7101 299.534 60.5074V0C265.867 9.5879 238.052 32.9357 222.436 63.5652C198.921 39.1808 165.901 23.9957 129.359 23.9957C57.9334 23.9698 0 81.9118 0 153.406C0 224.901 57.9334 282.843 129.359 282.843C200.786 282.843 258.719 224.875 258.719 153.406C258.719 138.817 256.259 124.824 251.83 111.738C255.197 112.282 258.589 113.008 261.93 113.915C268.223 115.599 274.18 117.905 279.877 120.6L300 85.7469C280.24 82.2487 260.635 84.5549 243.025 91.6033H243.051ZM205.628 186.187V186.705C197.341 192.38 186.127 194.868 175.872 193.261C165.047 191.473 155.775 184.399 146.711 179.061C138.035 174.111 128.764 169.473 118.741 167.555C98.049 163.642 80.6975 175.718 65.9358 187.223C61.4037 190.773 56.0687 194.142 49.9827 194.298C19.2421 195.541 20.4334 143.378 23.567 126.871C25.1468 119.071 30.0673 105.234 38.5359 97.7707C43.068 93.7023 48.7655 91.5515 55.2918 93.3395C59.4354 94.402 62.8021 97.4079 65.366 100.595C68.7327 104.845 70.8823 110.701 76.9941 112.127C79.7652 112.826 82.9247 112.127 85.4627 110.883C92.7659 107.514 98.0749 101.295 103.798 96.501C115.608 86.3948 129.437 78.9577 145.779 77.1697C164.71 75.2262 184.807 79.2945 200.371 89.4007C232.303 110.339 238.415 163.901 205.706 186.083L205.628 186.187Z" fill="#1F1F1F"/>
</svg>
